<?xml version="1.0" encoding="UTF-8"?><svg id="Layer_1" xmlns="http://www.w3.org/2000/svg" viewBox="0 0 56.2 22.66"><defs><style>.cls-1{fill:#ba3535;}</style></defs><g><path d="M15.1,2.26c.38,0,.74,.06,1.09,.17,.34,.11,.65,.29,.91,.55s.45,.54,.56,.86c.11,.32,.17,.66,.17,1.03,0,.4-.06,.78-.19,1.14-.12,.37-.31,.68-.57,.93-.26,.26-.57,.45-.95,.57-.38,.13-.77,.19-1.19,.19s-.77-.06-1.13-.17c-.36-.12-.67-.29-.93-.54-.26-.24-.44-.52-.55-.85s-.17-.67-.17-1.04c0-.4,.07-.79,.2-1.16,.14-.37,.34-.68,.61-.94,.27-.26,.59-.44,.97-.57,.38-.12,.77-.19,1.19-.19Zm-.04,.52c-.31,0-.6,.05-.88,.15-.28,.1-.52,.26-.72,.48s-.36,.48-.46,.77c-.1,.3-.15,.61-.15,.93,0,.3,.05,.59,.15,.86s.24,.5,.43,.69c.19,.18,.42,.32,.69,.41,.27,.09,.55,.13,.84,.13s.58-.05,.86-.14c.27-.1,.51-.25,.7-.45,.2-.21,.34-.46,.44-.75,.1-.29,.14-.6,.14-.92,0-.3-.04-.59-.13-.87s-.22-.51-.41-.71c-.19-.2-.41-.34-.67-.43-.26-.09-.54-.13-.83-.13Z"/><path d="M22.24,7.63c-.15,0-.26,0-.32,0h-.34l.05-.84c-.08,.14-.15,.26-.21,.33s-.13,.15-.21,.22c-.08,.07-.18,.13-.28,.19s-.23,.1-.36,.13c-.13,.03-.27,.05-.42,.05-.25,0-.48-.05-.7-.14s-.4-.22-.55-.39-.26-.36-.33-.59c-.07-.22-.1-.46-.1-.7,0-.32,.06-.64,.19-.96,.13-.31,.3-.57,.54-.78,.23-.2,.49-.35,.78-.43s.6-.12,.93-.12c.23,0,.5,.03,.81,.08,.01-.28,.02-.51,.02-.7,0-.27,0-.48,0-.65h.35c.09,0,.21,0,.35,0l-.11,2.18-.08,2.5v.6Zm-.56-3.45c-.15-.05-.29-.08-.4-.09-.11-.01-.22-.02-.32-.02-.25,0-.48,.04-.71,.11-.23,.07-.42,.19-.6,.35-.17,.16-.3,.37-.4,.62-.09,.25-.14,.49-.14,.73s.04,.46,.13,.67c.09,.21,.22,.37,.41,.49,.18,.12,.4,.18,.64,.18,.15,0,.28-.02,.4-.06,.12-.04,.23-.1,.33-.18s.19-.18,.28-.31c.09-.13,.16-.28,.21-.46,.04-.15,.08-.36,.1-.61,.01-.13,.02-.37,.03-.73l.02-.68Z"/><path d="M25.23,3.61c.27,0,.53,.04,.77,.12,.24,.08,.46,.2,.64,.37,.18,.17,.32,.38,.41,.63,.09,.26,.14,.52,.14,.81,0,.31-.05,.6-.15,.88-.1,.28-.24,.52-.42,.72-.18,.2-.4,.34-.66,.43s-.54,.14-.83,.14c-.28,0-.54-.04-.78-.12-.24-.08-.46-.21-.64-.39-.18-.18-.32-.39-.41-.64-.09-.25-.14-.52-.14-.8,0-.42,.09-.8,.26-1.13s.42-.59,.75-.75c.33-.17,.68-.25,1.06-.25Zm-.02,.49c-.26,0-.5,.07-.72,.2-.22,.13-.38,.33-.49,.59-.11,.26-.16,.55-.16,.86,0,.27,.04,.52,.13,.74,.09,.22,.23,.39,.43,.53,.2,.13,.44,.2,.73,.2,.19,0,.38-.03,.55-.1,.17-.07,.32-.17,.45-.33,.13-.15,.22-.34,.29-.56,.06-.22,.09-.45,.09-.69,0-.23-.03-.44-.09-.64s-.16-.36-.28-.48c-.13-.12-.27-.2-.43-.25-.16-.05-.32-.07-.49-.07Z"/><path d="M27.92,7.62c.12-1.62,.19-2.92,.19-3.92h.35c.09,0,.2,0,.34,0l-.05,.77c.06-.11,.12-.19,.15-.25,.04-.06,.09-.12,.15-.18,.06-.06,.14-.12,.23-.18,.09-.06,.19-.1,.31-.14,.12-.04,.24-.06,.36-.08s.24-.03,.37-.03c.22,0,.44,.03,.64,.08,.21,.05,.38,.14,.51,.26,.13,.12,.22,.26,.27,.41,.05,.15,.07,.32,.07,.49,0,.03,0,.1,0,.19,0,.1,0,.22-.02,.38l-.08,1.62c0,.15,0,.34-.01,.57-.12,0-.23,0-.33,0-.13,0-.25,0-.36,0,.03-.31,.05-.61,.06-.9l.05-.9c.02-.31,.02-.54,.02-.7,0-.23-.04-.41-.12-.54-.08-.14-.2-.24-.37-.31-.17-.07-.36-.11-.57-.11-.3,0-.56,.07-.77,.21-.2,.13-.35,.32-.46,.56-.07,.17-.13,.43-.16,.77-.04,.4-.07,1.05-.08,1.93-.14,0-.26,0-.33,0s-.2,0-.36,0Z"/><path d="M34.69,7.11c-.03,.13-.06,.29-.09,.5-.18,.04-.31,.07-.42,.08-.1,.01-.2,.02-.29,.02-.23,0-.41-.03-.55-.09-.14-.06-.25-.15-.32-.28-.07-.13-.11-.3-.11-.52,0-.03,0-.08,0-.15,0-.07,.02-.32,.04-.75l.09-1.73h-.52c.01-.11,.02-.26,.03-.46h.53c.01-.14,.03-.39,.04-.74,.24-.05,.45-.09,.61-.13-.02,.38-.03,.67-.03,.87h1.07c-.01,.16-.02,.32-.02,.46h-1.07l-.1,2.18v.17c0,.19,.02,.33,.06,.42,.04,.09,.11,.16,.19,.2s.17,.06,.27,.06c.06,0,.13,0,.21-.02s.21-.04,.39-.09Z"/><path d="M37.21,3.61c.27,0,.53,.04,.77,.12,.24,.08,.46,.2,.64,.37,.18,.17,.32,.38,.41,.63,.09,.26,.14,.52,.14,.81,0,.31-.05,.6-.15,.88-.1,.28-.24,.52-.42,.72-.18,.2-.4,.34-.66,.43s-.54,.14-.83,.14c-.28,0-.54-.04-.78-.12-.24-.08-.46-.21-.64-.39-.18-.18-.32-.39-.41-.64-.09-.25-.14-.52-.14-.8,0-.42,.09-.8,.26-1.13s.42-.59,.75-.75c.33-.17,.68-.25,1.06-.25Zm-.02,.49c-.26,0-.5,.07-.72,.2-.22,.13-.38,.33-.49,.59-.11,.26-.16,.55-.16,.86,0,.27,.04,.52,.13,.74,.09,.22,.23,.39,.43,.53,.2,.13,.44,.2,.73,.2,.19,0,.38-.03,.55-.1,.17-.07,.32-.17,.45-.33,.13-.15,.22-.34,.29-.56,.06-.22,.09-.45,.09-.69,0-.23-.03-.44-.09-.64s-.16-.36-.28-.48c-.13-.12-.27-.2-.43-.25-.16-.05-.32-.07-.49-.07Z"/><path d="M39.93,7.62c.05-.79,.1-1.73,.15-2.82,.03-.79,.06-1.61,.07-2.46h.36c.07,0,.19,0,.34,0l-.12,2.27-.08,2.3-.02,.71c-.15,0-.27,0-.34,0-.03,0-.15,0-.37,0Z"/><path d="M43.65,3.61c.27,0,.53,.04,.77,.12,.24,.08,.46,.2,.64,.37,.18,.17,.32,.38,.41,.63,.09,.26,.14,.52,.14,.81,0,.31-.05,.6-.15,.88-.1,.28-.24,.52-.42,.72-.18,.2-.4,.34-.66,.43s-.54,.14-.83,.14c-.28,0-.54-.04-.78-.12-.24-.08-.46-.21-.64-.39-.18-.18-.32-.39-.41-.64-.09-.25-.14-.52-.14-.8,0-.42,.09-.8,.26-1.13s.42-.59,.75-.75c.33-.17,.68-.25,1.06-.25Zm-.02,.49c-.26,0-.5,.07-.72,.2-.22,.13-.38,.33-.49,.59-.11,.26-.16,.55-.16,.86,0,.27,.04,.52,.13,.74,.09,.22,.23,.39,.43,.53,.2,.13,.44,.2,.73,.2,.19,0,.38-.03,.55-.1,.17-.07,.32-.17,.45-.33,.13-.15,.22-.34,.29-.56,.06-.22,.09-.45,.09-.69,0-.23-.03-.44-.09-.64s-.16-.36-.28-.48c-.13-.12-.27-.2-.43-.25-.16-.05-.32-.07-.49-.07Z"/><path d="M46.6,8.75c.34,.1,.63,.17,.85,.21,.23,.04,.44,.05,.63,.05,.21,0,.41-.03,.6-.09,.15-.05,.28-.12,.39-.21,.08-.07,.15-.16,.2-.27,.07-.15,.11-.33,.14-.56,.02-.18,.04-.55,.05-1.09-.06,.12-.12,.21-.17,.28s-.12,.15-.2,.22c-.09,.08-.18,.14-.3,.2s-.24,.11-.39,.14-.3,.05-.46,.05c-.23,0-.45-.03-.66-.1s-.39-.17-.55-.32c-.16-.15-.28-.34-.37-.57-.08-.23-.13-.47-.13-.73,0-.35,.06-.68,.19-.99,.13-.31,.31-.58,.55-.79,.24-.21,.51-.36,.82-.45s.63-.13,1-.13c.4,0,.89,.05,1.48,.16l-.04,.48-.12,2.17s0,.31-.02,.79l-.02,.8c-.01,.17-.04,.32-.07,.45-.03,.11-.07,.21-.12,.3-.05,.09-.1,.17-.17,.24-.07,.07-.15,.14-.24,.2s-.19,.11-.29,.14c-.14,.05-.29,.09-.45,.11-.18,.03-.35,.04-.53,.04-.25,0-.5-.01-.74-.04-.24-.03-.52-.07-.82-.15v-.21c-.01-.05-.02-.17-.04-.34Zm2.97-4.56c-.29-.06-.56-.09-.81-.09s-.49,.03-.7,.09c-.22,.06-.41,.17-.59,.32-.18,.16-.32,.36-.42,.61-.1,.25-.15,.51-.15,.78,0,.25,.05,.48,.14,.68s.23,.36,.42,.47c.19,.1,.41,.16,.65,.16,.21,0,.39-.04,.56-.11s.31-.19,.43-.34c.13-.16,.23-.34,.29-.54,.05-.14,.09-.36,.11-.64,.02-.23,.04-.69,.06-1.39Z"/><path d="M51.15,7.62l.07-.97,.07-1.66,.03-1.28h.36s.35,0,.35,0c-.03,.4-.06,.82-.08,1.26s-.04,.92-.06,1.44c-.01,.52-.02,.93-.02,1.21-.16,0-.28,0-.35,0-.06,0-.19,0-.37,0Zm.18-4.76c0-.24,.01-.43,.01-.55,.14,0,.27,0,.38,0,.14,0,.26,0,.37,0,0,.08-.01,.26-.02,.55-.14,0-.26,0-.36,0s-.23,0-.37,0Z"/><path d="M53.17,4.32c.02-.11,.05-.28,.07-.5,.31-.08,.58-.13,.81-.16s.45-.04,.67-.04c.23,0,.45,.02,.65,.06,.2,.04,.37,.11,.5,.21s.22,.2,.27,.33c.04,.12,.07,.26,.07,.4,0,.18-.01,.48-.04,.9-.03,.42-.05,.81-.06,1.16-.01,.36-.02,.67-.02,.95-.14,0-.25,0-.34,0-.08,0-.2,0-.35,0l.08-1.06,.06-1.25c-.09,.07-.16,.12-.2,.15-.05,.03-.1,.05-.15,.08-.06,.02-.12,.05-.19,.07-.07,.02-.2,.06-.4,.11s-.34,.1-.42,.12c-.18,.06-.32,.11-.42,.17-.1,.06-.19,.12-.26,.19-.07,.07-.12,.13-.15,.2-.03,.08-.05,.17-.05,.26,0,.14,.04,.26,.12,.36,.08,.1,.19,.17,.31,.21,.13,.04,.28,.06,.45,.06,.11,0,.22,0,.34-.02,.12-.02,.28-.05,.48-.12-.04,.1-.08,.25-.12,.46-.19,.04-.34,.06-.46,.07-.12,0-.23,.01-.34,.01-.35,0-.63-.04-.83-.12-.2-.08-.35-.21-.44-.38-.1-.17-.15-.35-.15-.55,0-.12,.02-.22,.05-.32s.08-.19,.14-.27c.06-.08,.14-.16,.25-.24,.11-.08,.22-.15,.34-.2,.12-.05,.26-.1,.42-.15,.16-.05,.42-.12,.77-.2,.11-.03,.21-.05,.29-.08,.08-.03,.15-.05,.21-.08,.06-.03,.12-.06,.16-.09,.05-.03,.09-.08,.13-.13,.04-.05,.07-.1,.09-.15,.02-.05,.03-.1,.03-.15,0-.13-.04-.23-.12-.32-.08-.09-.19-.15-.32-.19-.13-.04-.29-.05-.47-.05-.17,0-.34,.01-.52,.04-.18,.03-.33,.06-.46,.1-.13,.04-.29,.09-.48,.17Z"/></g><g><path d="M13.11,14.35l.06-.86,.12-2.95,.02-.63c0-.1,0-.2,0-.3v-.41c.31,0,.57,0,.77,0,.12,0,.3,0,.54,0,.24,0,.43,0,.55,0,.32,0,.56,.02,.71,.07,.15,.05,.29,.12,.41,.23,.12,.11,.21,.24,.28,.41,.07,.16,.1,.34,.1,.53,0,.32-.08,.6-.24,.85-.16,.25-.38,.44-.66,.57-.28,.12-.59,.19-.93,.19-.18,0-.38-.02-.6-.06-.04-.17-.08-.33-.13-.47,.2,.04,.39,.06,.57,.06s.35-.02,.52-.06,.31-.11,.42-.21c.12-.1,.21-.22,.28-.36,.07-.15,.1-.3,.1-.46,0-.13-.02-.25-.07-.36-.05-.11-.11-.2-.2-.26-.08-.06-.18-.11-.29-.13s-.26-.03-.47-.03h-.71s-.29,0-.29,0c-.03,.55-.05,1.05-.06,1.5l-.05,1.55c-.02,.59-.03,.98-.03,1.18v.43h-.35s-.16,0-.36,0Z"/><path d="M17.23,14.35c.05-.77,.1-1.69,.15-2.75,.03-.77,.06-1.57,.07-2.39h.35c.07,0,.18,0,.34,0l-.12,2.21-.08,2.24-.02,.69c-.15,0-.26,0-.33,0-.03,0-.15,0-.36,0Z"/><path d="M19.2,11.13c.02-.11,.05-.27,.07-.49,.3-.08,.56-.13,.79-.16,.22-.03,.44-.04,.65-.04,.23,0,.44,.02,.64,.06,.2,.04,.36,.11,.49,.2s.22,.2,.26,.32,.06,.25,.06,.39c0,.17-.01,.46-.04,.87s-.05,.79-.06,1.13c-.01,.35-.02,.66-.02,.93-.14,0-.25,0-.33,0-.08,0-.2,0-.34,0l.08-1.03,.06-1.22c-.09,.07-.15,.12-.2,.14-.04,.03-.09,.05-.15,.08s-.12,.05-.18,.07c-.07,.02-.2,.06-.39,.11-.19,.05-.33,.09-.41,.12-.17,.06-.31,.11-.41,.17-.1,.06-.18,.12-.25,.18-.07,.07-.12,.13-.14,.2-.03,.08-.05,.16-.05,.25,0,.14,.04,.25,.12,.35,.08,.1,.18,.17,.3,.21,.12,.04,.27,.06,.44,.06,.11,0,.22,0,.33-.02s.27-.05,.46-.11c-.04,.1-.08,.25-.12,.45-.18,.04-.33,.06-.45,.07-.12,0-.23,.01-.33,.01-.34,0-.61-.04-.81-.12s-.34-.2-.43-.37c-.1-.16-.14-.34-.14-.54,0-.11,.02-.22,.05-.31,.03-.1,.08-.18,.14-.26,.06-.08,.14-.16,.25-.23s.22-.14,.34-.19c.12-.05,.25-.1,.41-.15s.41-.12,.75-.2c.11-.03,.2-.05,.28-.08,.08-.03,.15-.05,.21-.08,.06-.03,.11-.05,.16-.09,.05-.03,.09-.08,.12-.12,.04-.05,.07-.1,.08-.15,.02-.05,.03-.1,.03-.15,0-.12-.04-.23-.12-.32-.08-.09-.19-.15-.31-.18-.13-.04-.28-.05-.46-.05-.16,0-.33,.01-.5,.04s-.32,.06-.45,.09c-.12,.04-.28,.09-.47,.16Z"/><path d="M23.04,14.35c.12-1.58,.18-2.85,.19-3.82h.34c.08,0,.19,0,.33,0l-.05,.75c.06-.11,.11-.19,.15-.24,.04-.06,.09-.12,.15-.18s.14-.12,.22-.18c.09-.05,.19-.1,.3-.14,.12-.04,.23-.06,.35-.08,.12-.02,.24-.03,.36-.03,.22,0,.42,.03,.63,.08s.37,.14,.5,.26c.13,.12,.22,.25,.26,.4,.04,.15,.07,.31,.07,.48,0,.03,0,.1,0,.19,0,.09,0,.21-.01,.37l-.07,1.58c0,.15,0,.34-.01,.55-.11,0-.22,0-.32,0-.12,0-.24,0-.35,0,.03-.3,.04-.6,.06-.88l.05-.88c.02-.3,.02-.53,.02-.68,0-.22-.04-.4-.11-.53-.08-.13-.2-.23-.36-.31-.17-.07-.35-.11-.56-.11-.29,0-.54,.07-.75,.21-.19,.13-.34,.31-.45,.55-.07,.17-.12,.42-.15,.75-.04,.39-.07,1.02-.08,1.88-.14,0-.25,0-.33,0s-.2,0-.35,0Z"/><path d="M30.84,13.75c-.03,.14-.06,.31-.09,.53-.24,.06-.45,.1-.63,.12-.18,.02-.35,.03-.53,.03-.31,0-.6-.04-.85-.11-.25-.08-.46-.21-.64-.39s-.31-.4-.38-.64c-.08-.24-.12-.5-.12-.77,0-.37,.07-.72,.21-1.04,.14-.32,.36-.57,.65-.76,.29-.18,.65-.28,1.1-.28,.23,0,.45,.03,.66,.1,.21,.07,.38,.17,.52,.3s.25,.3,.32,.5c.08,.2,.11,.42,.11,.65,0,.09,0,.18-.02,.26h-2.88c-.01,.14-.02,.24-.02,.32,0,.26,.06,.51,.17,.73s.27,.39,.49,.51,.47,.17,.75,.17c.32,0,.72-.08,1.18-.24Zm-2.54-1.8h2.25c0-.16-.01-.28-.03-.37-.02-.09-.05-.18-.1-.27-.05-.09-.11-.18-.19-.25-.08-.07-.18-.12-.29-.16-.11-.04-.24-.05-.37-.05-.14,0-.28,.02-.41,.06-.13,.04-.24,.1-.34,.17-.1,.07-.18,.15-.25,.25s-.12,.19-.15,.27-.07,.21-.1,.35Z"/><path d="M32.66,10.53l-.08,1.66-.06,1.69c-.02,.67-.05,1.09-.07,1.26-.02,.19-.06,.34-.1,.44-.04,.09-.09,.16-.14,.23-.06,.07-.13,.13-.22,.18-.1,.06-.2,.1-.31,.13-.15,.04-.32,.06-.51,.06-.31,0-.64-.04-.99-.12,0-.14-.02-.32-.05-.53,.3,.11,.57,.16,.82,.16,.14,0,.27-.03,.39-.08,.1-.04,.18-.09,.25-.16,.06-.06,.1-.14,.14-.25,.05-.13,.08-.29,.1-.49,.02-.28,.05-.68,.07-1.21,0-.16,.02-.54,.04-1.15,.02-.85,.04-1.34,.04-1.48v-.34c.15,0,.27,0,.34,0s.18,0,.33,0Zm-.68-.83c0-.14,.01-.32,.02-.53,.11,0,.23,0,.37,0,.12,0,.24,0,.36,0,0,.13-.02,.3-.02,.53-.14,0-.26,0-.36,0s-.22,0-.36,0Z"/><path d="M33.8,11.13c.02-.11,.05-.27,.07-.49,.3-.08,.56-.13,.79-.16,.22-.03,.44-.04,.65-.04,.23,0,.44,.02,.64,.06,.2,.04,.36,.11,.49,.2s.22,.2,.26,.32,.06,.25,.06,.39c0,.17-.01,.46-.04,.87s-.05,.79-.06,1.13c-.01,.35-.02,.66-.02,.93-.14,0-.25,0-.33,0-.08,0-.2,0-.34,0l.08-1.03,.06-1.22c-.09,.07-.15,.12-.2,.14-.04,.03-.09,.05-.15,.08s-.12,.05-.18,.07c-.07,.02-.2,.06-.39,.11-.19,.05-.33,.09-.41,.12-.17,.06-.31,.11-.41,.17-.1,.06-.18,.12-.25,.18-.07,.07-.12,.13-.14,.2-.03,.08-.05,.16-.05,.25,0,.14,.04,.25,.12,.35,.08,.1,.18,.17,.3,.21,.12,.04,.27,.06,.44,.06,.11,0,.22,0,.33-.02s.27-.05,.46-.11c-.04,.1-.08,.25-.12,.45-.18,.04-.33,.06-.45,.07-.12,0-.23,.01-.33,.01-.34,0-.61-.04-.81-.12s-.34-.2-.43-.37c-.1-.16-.14-.34-.14-.54,0-.11,.02-.22,.05-.31,.03-.1,.08-.18,.14-.26,.06-.08,.14-.16,.25-.23s.22-.14,.34-.19c.12-.05,.25-.1,.41-.15s.41-.12,.75-.2c.11-.03,.2-.05,.28-.08,.08-.03,.15-.05,.21-.08,.06-.03,.11-.05,.16-.09,.05-.03,.09-.08,.12-.12,.04-.05,.07-.1,.08-.15,.02-.05,.03-.1,.03-.15,0-.12-.04-.23-.12-.32-.08-.09-.19-.15-.31-.18-.13-.04-.28-.05-.46-.05-.16,0-.33,.01-.5,.04s-.32,.06-.45,.09c-.12,.04-.28,.09-.47,.16Z"/><path d="M41.23,14.35c-.15,0-.25,0-.31,0h-.33l.05-.81c-.08,.14-.15,.25-.21,.33-.06,.08-.13,.15-.21,.22-.08,.07-.17,.13-.28,.18-.1,.05-.22,.1-.35,.13s-.26,.05-.41,.05c-.24,0-.47-.04-.68-.13-.21-.09-.39-.21-.54-.38-.15-.16-.26-.35-.32-.57s-.1-.44-.1-.68c0-.32,.06-.63,.18-.94s.3-.56,.52-.76c.22-.2,.48-.34,.76-.42,.28-.08,.59-.12,.9-.12,.22,0,.48,.03,.79,.08,.01-.27,.02-.5,.02-.68,0-.26,0-.47,0-.63h.34c.09,0,.2,0,.34,0l-.11,2.13-.08,2.44v.59Zm-.54-3.36c-.15-.05-.28-.07-.39-.09-.11-.01-.21-.02-.31-.02-.24,0-.47,.03-.69,.1-.22,.07-.41,.18-.58,.34s-.3,.36-.39,.6c-.09,.24-.14,.48-.14,.72s.04,.45,.13,.65c.09,.2,.22,.36,.4,.48s.39,.17,.63,.17c.14,0,.27-.02,.39-.06,.12-.04,.23-.1,.32-.17s.19-.18,.27-.31c.09-.13,.15-.28,.2-.44,.04-.15,.07-.35,.09-.6,.01-.12,.02-.36,.03-.71l.02-.67Z"/><path d="M42.48,11.13c.02-.11,.05-.27,.07-.49,.3-.08,.56-.13,.79-.16,.22-.03,.44-.04,.65-.04,.23,0,.44,.02,.64,.06,.2,.04,.36,.11,.49,.2s.22,.2,.26,.32,.06,.25,.06,.39c0,.17-.01,.46-.04,.87s-.05,.79-.06,1.13c-.01,.35-.02,.66-.02,.93-.14,0-.25,0-.33,0-.08,0-.2,0-.34,0l.08-1.03,.06-1.22c-.09,.07-.15,.12-.2,.14-.04,.03-.09,.05-.15,.08s-.12,.05-.18,.07c-.07,.02-.2,.06-.39,.11-.19,.05-.33,.09-.41,.12-.17,.06-.31,.11-.41,.17-.1,.06-.18,.12-.25,.18-.07,.07-.12,.13-.14,.2-.03,.08-.05,.16-.05,.25,0,.14,.04,.25,.12,.35,.08,.1,.18,.17,.3,.21,.12,.04,.27,.06,.44,.06,.11,0,.22,0,.33-.02s.27-.05,.46-.11c-.04,.1-.08,.25-.12,.45-.18,.04-.33,.06-.45,.07-.12,0-.23,.01-.33,.01-.34,0-.61-.04-.81-.12s-.34-.2-.43-.37c-.1-.16-.14-.34-.14-.54,0-.11,.02-.22,.05-.31,.03-.1,.08-.18,.14-.26,.06-.08,.14-.16,.25-.23s.22-.14,.34-.19c.12-.05,.25-.1,.41-.15s.41-.12,.75-.2c.11-.03,.2-.05,.28-.08,.08-.03,.15-.05,.21-.08,.06-.03,.11-.05,.16-.09,.05-.03,.09-.08,.12-.12,.04-.05,.07-.1,.08-.15,.02-.05,.03-.1,.03-.15,0-.12-.04-.23-.12-.32-.08-.09-.19-.15-.31-.18-.13-.04-.28-.05-.46-.05-.16,0-.33,.01-.5,.04s-.32,.06-.45,.09c-.12,.04-.28,.09-.47,.16Z"/></g><path class="cls-1" d="M13.39,18.34c-.43-.13-.86-.23-1.29-.34-.27-.09-.88-.29-1.15-.37-3.14-1.02-6.02-3.14-7.18-6.35l-.28,.03c-.02,1.19,.37,2.35,.98,3.39,1.57,2.71,4.57,4.24,7.63,4.63-2.96,2.58-8.34,2.8-10.12-1.22-.94-2.38-.52-4.98-.26-7.53,.21-1.76,.44-3.55,.42-5.38,.02-1.85-.68-3.62-1.6-5.19l-.25,.13c.17,.4,.32,.82,.45,1.24,.4,1.23,.66,2.51,.53,3.8C1.02,8.72-.16,12.23,.02,15.84c.22,6.16,6.31,8.45,11.32,5.61,1.35-.8,2.35-2.09,3.73-2.8,2.26-1.29,5.02-1.29,7.55-1.04,0,0,.05-.28,.05-.28-3.22-.88-6.51-.78-9.29,1Z"/></svg>